HIERARCHY
ROOT Hips
{
	OFFSET 0.000000 35.069874 -0.029489
	CHANNELS 6 Xposition Yposition Zposition Xrotation Yrotation Zrotation 
	JOINT Spine
	{
		OFFSET 0.000000 6.876060 0.125662
		CHANNELS 3 Xrotation Yrotation Zrotation
		JOINT Spine1
		{
			OFFSET 0.000000 5.730046 0.104717
			CHANNELS 3 Xrotation Yrotation Zrotation
			JOINT Spine1_split
			{
				OFFSET 0.000000 5.730046 0.104717
				CHANNELS 3 Xrotation Yrotation Zrotation
				JOINT Spine2
				{
					OFFSET 0.000000 5.730046 0.104717
					CHANNELS 3 Xrotation Yrotation Zrotation
					JOINT Neck
					{
						OFFSET 0.000000 10.314075 0.188489
						CHANNELS 3 Xrotation Yrotation Zrotation
						JOINT Head
						{
							OFFSET 0.000000 7.643753 -2.377445
							CHANNELS 3 Xrotation Yrotation Zrotation
							JOINT HeadTop_End
							{
								OFFSET 0.000000 43.788605 -13.619637
								CHANNELS 3 Xrotation Yrotation Zrotation
								End Site
								{
									OFFSET 0.000000 0.000000 0.000000
								}
							}
						}
					}
					JOINT LeftShoulder
					{
						OFFSET 2.196093 4.412501 0.087498
						CHANNELS 3 Xrotation Yrotation Zrotation
						JOINT LeftShoulder_split
						{
							OFFSET 2.196093 4.412501 0.087498
							CHANNELS 3 Xrotation Yrotation Zrotation
							JOINT LeftArm
							{
								OFFSET 8.774866 -2.970879 -0.026997
								CHANNELS 3 Xrotation Yrotation Zrotation
								JOINT LeftForeArm
								{
									OFFSET 8.450586 -0.797432 -0.648343
									CHANNELS 3 Xrotation Yrotation Zrotation
									JOINT LeftHand
									{
										OFFSET 18.458662 0.962311 0.193148
										CHANNELS 3 Xrotation Yrotation Zrotation
										JOINT LeftHandThumb1
										{
											OFFSET 2.379990 -1.333382 2.680594
											CHANNELS 3 Xrotation Yrotation Zrotation
											JOINT LeftHandThumb2
											{
												OFFSET 1.903984 -1.066746 2.144473
												CHANNELS 3 Xrotation Yrotation Zrotation
												JOINT LeftHandThumb3
												{
													OFFSET 0.966393 -1.489639 2.964555
													CHANNELS 3 Xrotation Yrotation Zrotation
													JOINT LeftHandThumb4
													{
														OFFSET 1.205181 -0.823021 1.625701
														CHANNELS 3 Xrotation Yrotation Zrotation
														End Site
														{
															OFFSET 0.000000 0.000000 0.000000
														}
													}
												}
											}
										}
										JOINT LeftHandIndex1
										{
											OFFSET 7.830624 -0.787468 2.563931
											CHANNELS 3 Xrotation Yrotation Zrotation
											JOINT LeftHandIndex2
											{
												OFFSET 3.312897 -0.052605 1.515312
												CHANNELS 3 Xrotation Yrotation Zrotation
												JOINT LeftHandIndex3
												{
													OFFSET 3.460667 -0.207008 1.581951
													CHANNELS 3 Xrotation Yrotation Zrotation
													JOINT LeftHandIndex4
													{
														OFFSET 2.183182 0.110458 0.999585
														CHANNELS 3 Xrotation Yrotation Zrotation
														End Site
														{
															OFFSET 0.000000 0.000000 0.000000
														}
													}
												}
											}
										}
										JOINT LeftHandMiddle1
										{
											OFFSET 8.556145 -0.261200 0.258753
											CHANNELS 3 Xrotation Yrotation Zrotation
											JOINT LeftHandMiddle2
											{
												OFFSET 3.828903 -0.489014 -0.111505
												CHANNELS 3 Xrotation Yrotation Zrotation
												JOINT LeftHandMiddle3
												{
													OFFSET 3.696209 -0.166595 -0.107596
													CHANNELS 3 Xrotation Yrotation Zrotation
													JOINT LeftHandMiddle4
													{
														OFFSET 2.259281 0.534500 -0.065675
														CHANNELS 3 Xrotation Yrotation Zrotation
														End Site
														{
															OFFSET 0.000000 0.000000 0.000000
														}
													}
												}
											}
										}
										JOINT LeftHandRing1
										{
											OFFSET 8.509293 -0.556679 -3.044941
											CHANNELS 3 Xrotation Yrotation Zrotation
											JOINT LeftHandRing2
											{
												OFFSET 2.995171 -0.303261 -0.843591
												CHANNELS 3 Xrotation Yrotation Zrotation
												JOINT LeftHandRing3
												{
													OFFSET 2.968273 -0.101997 -0.834287
													CHANNELS 3 Xrotation Yrotation Zrotation
													JOINT LeftHandRing4
													{
														OFFSET 1.521358 -0.461468 -0.418735
														CHANNELS 3 Xrotation Yrotation Zrotation
														End Site
														{
															OFFSET 0.000000 0.000000 0.000000
														}
													}
												}
											}
										}
									}
								}
							}
						}
					}
					JOINT RightShoulder
					{
						OFFSET -2.196075 4.412512 0.070694
						CHANNELS 3 Xrotation Yrotation Zrotation
						JOINT RightShoulder_split
						{
							OFFSET -2.196075 4.412512 0.070694
							CHANNELS 3 Xrotation Yrotation Zrotation
							JOINT RightArm
							{
								OFFSET -8.774886 -2.970947 -0.094209
								CHANNELS 3 Xrotation Yrotation Zrotation
								JOINT RightForeArm
								{
									OFFSET -8.450586 -0.797386 -0.330665
									CHANNELS 3 Xrotation Yrotation Zrotation
									JOINT RightHand
									{
										OFFSET -18.458664 0.962341 0.025780
										CHANNELS 3 Xrotation Yrotation Zrotation
										JOINT RightHandThumb1
										{
											OFFSET -2.390282 -1.240040 2.604684
											CHANNELS 3 Xrotation Yrotation Zrotation
											JOINT RightHandThumb2
											{
												OFFSET -1.912228 -0.992111 2.083740
												CHANNELS 3 Xrotation Yrotation Zrotation
												JOINT RightHandThumb3
												{
													OFFSET -0.876358 -1.555370 2.930126
													CHANNELS 3 Xrotation Yrotation Zrotation
													JOINT RightHandThumb4
													{
														OFFSET -1.227077 -0.755932 1.835223
														CHANNELS 3 Xrotation Yrotation Zrotation
														End Site
														{
															OFFSET 0.000000 0.000000 0.000000
														}
													}
												}
											}
										}
										JOINT RightHandIndex1
										{
											OFFSET -8.716801 -0.633743 3.098187
											CHANNELS 3 Xrotation Yrotation Zrotation
											JOINT RightHandIndex2
											{
												OFFSET -3.319706 -0.240585 1.198087
												CHANNELS 3 Xrotation Yrotation Zrotation
												JOINT RightHandIndex3
												{
													OFFSET -3.153255 -0.154724 1.138827
													CHANNELS 3 Xrotation Yrotation Zrotation
													JOINT RightHandIndex4
													{
														OFFSET -1.818684 -0.003197 0.655154
														CHANNELS 3 Xrotation Yrotation Zrotation
														End Site
														{
															OFFSET 0.000000 0.000000 0.000000
														}
													}
												}
											}
										}
										JOINT RightHandMiddle1
										{
											OFFSET -8.158691 -0.528496 0.196552
											CHANNELS 3 Xrotation Yrotation Zrotation
											JOINT RightHandMiddle2
											{
												OFFSET -3.890194 -0.261169 -0.136423
												CHANNELS 3 Xrotation Yrotation Zrotation
												JOINT RightHandMiddle3
												{
													OFFSET -3.903057 -0.179909 -0.137173
													CHANNELS 3 Xrotation Yrotation Zrotation
													JOINT RightHandMiddle4
													{
														OFFSET -2.366261 0.198380 -0.083987
														CHANNELS 3 Xrotation Yrotation Zrotation
														End Site
														{
															OFFSET 0.000000 0.000000 0.000000
														}
													}
												}
											}
										}
										JOINT RightHandRing1
										{
											OFFSET -7.616104 -0.395126 -2.681268
											CHANNELS 3 Xrotation Yrotation Zrotation
											JOINT RightHandRing2
											{
												OFFSET -3.235790 -0.462120 -1.101476
												CHANNELS 3 Xrotation Yrotation Zrotation
												JOINT RightHandRing3
												{
													OFFSET -3.179264 -0.138618 -1.084847
													CHANNELS 3 Xrotation Yrotation Zrotation
													JOINT RightHandRing4
													{
														OFFSET -1.963291 -0.101624 -0.668250
														CHANNELS 3 Xrotation Yrotation Zrotation
														End Site
														{
															OFFSET 0.000000 0.000000 0.000000
														}
													}
												}
											}
										}
									}
								}
							}
						}
					}
				}
			}
		}
	}
	JOINT LeftUpLeg
	{
		OFFSET 10.205382 -3.823519 0.155145
		CHANNELS 3 Xrotation Yrotation Zrotation
		JOINT LeftLeg
		{
			OFFSET 0.283732 -12.998343 0.567794
			CHANNELS 3 Xrotation Yrotation Zrotation
			JOINT LeftFoot
			{
				OFFSET -1.058953 -10.688869 -2.184322
				CHANNELS 3 Xrotation Yrotation Zrotation
				JOINT LeftToeBase
				{
					OFFSET 0.108145 -7.191069 7.560211
					CHANNELS 3 Xrotation Yrotation Zrotation
					JOINT LeftToe_End
					{
						OFFSET 0.070226 0.081726 4.490266
						CHANNELS 3 Xrotation Yrotation Zrotation
						End Site
						{
							OFFSET 0.000000 0.000000 0.000000
						}
					}
				}
			}
		}
	}
	JOINT RightUpLeg
	{
		OFFSET -10.205383 -3.823513 0.005508
		CHANNELS 3 Xrotation Yrotation Zrotation
		JOINT RightLeg
		{
			OFFSET -0.283728 -12.998341 0.610627
			CHANNELS 3 Xrotation Yrotation Zrotation
			JOINT RightFoot
			{
				OFFSET 1.058956 -10.688892 -1.945833
				CHANNELS 3 Xrotation Yrotation Zrotation
				JOINT RightToeBase
				{
					OFFSET -0.108150 -7.191040 7.372945
					CHANNELS 3 Xrotation Yrotation Zrotation
					JOINT RightToe_End
					{
						OFFSET -0.070229 0.081738 4.479398
						CHANNELS 3 Xrotation Yrotation Zrotation
						End Site
						{
							OFFSET 0.000000 0.000000 0.000000
						}
					}
				}
			}
		}
	}
}
MOTION
Frames: 4
Frame Time: 0.016667
0.476069 33.618572 -0.758386 -0.384688 -0.144607 -1.441488 -9.196165 1.323583 0.961374 7.246680 -0.041692 -1.878295 0.000000 0.000000 0.000000 7.251815 0.041100 -1.863932 2.287008 -1.008078 3.029062 -5.069789 -2.335754 2.401237 0.000000 -0.000000 0.000000 0.892951 -0.363520 -12.068770 0.000000 0.000000 0.000000 12.696025 -38.339385 -51.619363 -1.758223 -15.346827 -8.573801 -26.115850 -2.346051 11.829836 12.458189 40.686412 0.857100 2.104539 35.786482 12.673852 -0.835762 -9.524069 -5.300627 -0.000003 0.000006 0.000001 9.204875 24.061566 -20.088911 3.991726 1.418360 -8.398256 4.839748 0.458259 -10.474328 0.000000 -0.000001 0.000001 0.085271 0.313409 -17.348692 0.154037 2.850685 -22.053760 -0.492733 2.059328 -27.394501 -0.000003 -0.000001 -0.000003 -6.557076 -10.769750 -26.450679 -6.084864 5.999529 -27.038219 -0.470959 3.619559 -4.319118 0.000002 -0.000000 0.000004 1.709875 -7.765203 12.183059 0.000000 0.000000 0.000000 24.485648 50.960666 45.993176 -2.774266 25.788902 8.990482 -46.835195 1.104299 -16.057715 18.221107 -34.444258 -3.390974 2.587216 -35.405433 -13.168462 3.535785 11.848955 7.302095 -0.000001 -0.000001 0.000000 9.810195 -19.605203 23.689244 5.732399 -1.155226 15.113281 3.449626 -0.620332 9.359684 0.000002 0.000002 0.000001 0.027054 -0.577430 25.511508 -0.044368 -2.826811 19.364659 -0.403387 -1.721276 18.175659 -0.000001 0.000000 -0.000003 -8.524668 13.007831 26.327104 -7.381702 -5.909236 26.006931 -4.178876 -3.342488 13.652572 -0.000001 -0.000001 0.000002 -11.371963 5.240009 3.070796 30.051692 -7.409360 -1.880562 -18.329841 -1.561315 3.625333 -0.011872 -0.000011 0.000016 -0.000000 -0.000000 0.000000 -10.820279 -3.660917 -1.119458 25.319849 6.637358 0.603061 -14.157894 -0.226357 -0.378795 -0.000124 -0.000000 0.000008 -0.000000 0.000000 -0.000000 
0.465838 33.622841 -0.775146 -0.476075 -0.247328 -1.390296 -9.011878 1.243865 1.004728 7.243667 -0.054629 -1.914696 0.000000 0.000000 0.000000 7.249078 0.027203 -1.900874 2.289488 -0.980009 2.997443 -5.155915 -2.237614 2.396680 -0.000000 0.000000 -0.000000 0.896152 -0.370155 -12.068796 0.000000 0.000000 0.000000 12.621031 -38.618183 -51.651414 -1.696226 -14.733867 -8.557104 -27.891120 -2.262183 11.705495 12.506425 40.717479 0.841841 2.116842 35.788634 12.663005 -0.831353 -9.523866 -5.303152 -0.000002 -0.000002 -0.000004 9.629872 24.055959 -21.056252 3.997066 1.419418 -8.409390 4.842386 0.458702 -10.479891 0.000003 0.000001 -0.000002 0.124217 0.455639 -18.215612 0.154322 2.851831 -22.060956 -0.492713 2.059520 -27.395648 -0.000001 0.000000 0.000002 -6.676670 -10.522677 -27.302112 -6.085025 5.999808 -27.039157 -0.469946 3.618644 -4.314381 -0.000002 -0.000002 0.000002 1.710722 -7.768542 12.183193 0.000000 0.000000 0.000000 23.925535 50.943943 46.339435 -2.740338 25.497771 8.975581 -46.346119 1.144602 -16.087401 18.248546 -34.474461 -3.384159 2.587219 -35.405433 -13.168465 3.535789 11.848952 7.302084 -0.000002 -0.000006 0.000006 9.815662 -19.604897 23.704165 5.737816 -1.155717 15.127243 3.452250 -0.620853 9.366634 0.000000 -0.000001 0.000001 0.029889 -0.583120 25.520281 -0.044119 -2.828363 19.374706 -0.404615 -1.722021 18.178321 -0.000001 -0.000001 -0.000005 -8.518590 12.997794 26.328069 -7.382559 -5.910521 26.010831 -4.179505 -3.342139 13.649208 0.000001 -0.000001 -0.000002 -10.910421 5.585236 2.966595 29.735287 -7.362374 -1.885320 -18.412602 -1.085992 3.700820 -0.012512 -0.000010 0.000016 -0.000000 -0.000000 0.000000 -10.845550 -3.325095 -1.146103 25.412397 6.374633 0.694345 -14.143032 -0.161203 -0.368999 -0.000174 -0.000006 0.000008 -0.000000 0.000000 -0.000000 
0.458098 33.625366 -0.793594 -0.587870 -0.278923 -1.384807 -8.654437 1.151463 1.047284 7.158618 -0.064566 -1.933344 0.000000 0.000000 0.000000 7.164082 0.014677 -1.920349 2.298064 -0.960203 2.970374 -5.268168 -2.191121 2.429276 -0.000000 -0.000000 0.000000 0.900174 -0.376604 -12.068699 0.000000 0.000000 0.000000 12.343319 -38.532960 -51.777868 -1.660421 -14.378446 -8.547751 -29.874278 -2.085877 11.465813 12.543962 40.741634 0.829944 2.126618 35.790314 12.654376 -0.827855 -9.523690 -5.305155 -0.000000 -0.000001 0.000001 9.646455 24.055600 -21.094057 4.001141 1.420212 -8.417878 4.844374 0.459047 -10.484129 0.000001 0.000003 0.000002 0.132949 0.475164 -18.233096 0.154104 2.850981 -22.055579 -0.492850 2.057830 -27.385883 -0.000003 -0.000001 -0.000002 -6.653022 -10.488496 -27.294845 -6.081372 5.993216 -27.016846 -0.464286 3.613443 -4.287623 0.000001 0.000001 0.000004 1.711227 -7.754978 12.182693 0.000000 0.000000 0.000000 23.620280 50.914047 46.511300 -2.726898 25.382103 8.969713 -46.017279 1.187398 -16.097337 18.269281 -34.497291 -3.379003 2.587218 -35.405433 -13.168466 3.535787 11.848956 7.302084 0.000002 -0.000004 0.000007 9.819766 -19.604663 23.715315 5.741926 -1.156089 15.137846 3.454236 -0.621254 9.371942 0.000000 0.000001 0.000003 0.036948 -0.595320 25.515597 -0.044173 -2.827973 19.372196 -0.408303 -1.721600 18.170123 -0.000001 0.000000 -0.000004 -8.494888 12.977257 26.300641 -7.378566 -5.904530 25.992664 -4.177196 -3.337064 13.624385 0.000001 -0.000002 0.000003 -10.599622 5.844302 2.930579 29.594055 -7.372231 -1.877301 -18.493056 -0.762627 3.760573 -0.014005 -0.000011 0.000015 -0.000000 -0.000000 0.000000 -10.767721 -2.945661 -1.127564 25.394917 6.039863 0.819368 -14.099602 -0.131713 -0.355598 -0.000096 -0.000004 0.000007 -0.000000 0.000000 -0.000000 
0.452055 33.627174 -0.814163 -0.711033 -0.264485 -1.406994 -8.171187 1.055856 1.097451 7.011704 -0.071747 -1.944896 0.000000 0.000000 0.000000 7.017102 0.003844 -1.932847 2.313505 -0.946553 2.947246 -5.389746 -2.180465 2.484540 0.000000 0.000000 -0.000000 0.904820 -0.378326 -12.068793 0.000000 0.000000 0.000000 11.936334 -38.222118 -51.951252 -1.642617 -14.201247 -8.543165 -32.053200 -1.841737 11.165840 12.574423 40.761196 0.820259 2.134684 35.791721 12.647280 -0.824953 -9.523544 -5.306782 -0.000000 -0.000003 -0.000001 9.659800 24.055317 -21.124433 4.004388 1.420846 -8.424585 4.845923 0.459303 -10.487462 0.000001 0.000001 0.000005 0.146072 0.502610 -18.233362 0.153413 2.848328 -22.039023 -0.493128 2.054411 -27.366012 0.000001 0.000000 0.000003 -6.610304 -10.440379 -27.254982 -6.074186 5.980276 -26.973040 -0.454247 3.604260 -4.240198 -0.000000 -0.000002 -0.000003 1.711463 -7.731754 12.182115 0.000000 0.000000 0.000000 23.500598 50.875036 46.552712 -2.728406 25.395168 8.970372 -45.757609 1.218893 -16.080729 18.285482 -34.515108 -3.374967 2.587221 -35.405426 -13.168463 3.535786 11.848957 7.302090 0.000002 -0.000003 0.000003 9.822916 -19.604468 23.723947 5.745182 -1.156389 15.146228 3.455809 -0.621566 9.376137 0.000000 -0.000001 0.000002 0.048064 -0.613916 25.499024 -0.044517 -2.825873 19.358575 -0.414261 -1.720165 18.152041 -0.000001 0.000000 -0.000003 -8.454490 12.946304 26.246918 -7.370165 -5.891872 25.954278 -4.172102 -3.327535 13.579406 -0.000001 -0.000002 0.000001 -10.385638 6.011517 2.932707 29.562609 -7.367493 -1.865909 -18.570846 -0.544055 3.796597 -0.016295 -0.000008 0.000016 -0.000000 -0.000000 0.000000 -10.629256 -2.546128 -1.085308 25.305764 5.665031 0.969110 -14.032957 -0.121097 -0.343420 -0.000000 -0.000001 0.000008 -0.000000 0.000000 -0.000000 
